<svg width="24" height="24" viewBox="0 0 24 24" fill="none" xmlns="http://www.w3.org/2000/svg">
<rect width="24" height="24" fill="url(#paint0_linear_15_2098)"/>
<path d="M16.306 8.70726C16.0861 8.48304 15.825 8.30517 15.5376 8.18381C15.2502 8.06246 14.9422 8 14.6311 8C14.3201 8 14.012 8.06246 13.7247 8.18381C13.4373 8.30517 13.1762 8.48304 12.9563 8.70726L12.4999 9.17238L12.0435 8.70726C11.5993 8.25456 10.9968 8.00023 10.3686 8.00023C9.74043 8.00023 9.13796 8.25456 8.69375 8.70726C8.24955 9.15996 8 9.77395 8 10.4142C8 11.0544 8.24955 11.6684 8.69375 12.1211L9.15014 12.5862L12.4999 16L15.8496 12.5862L16.306 12.1211C16.526 11.897 16.7006 11.6309 16.8196 11.338C16.9387 11.0451 17 10.7312 17 10.4142C17 10.0971 16.9387 9.78322 16.8196 9.49035C16.7006 9.19747 16.526 8.93137 16.306 8.70726Z" fill="#B3B3B3" stroke="#B3B3B3" stroke-width="2" stroke-linecap="round" stroke-linejoin="round"/>
<defs>
<linearGradient id="paint0_linear_15_2098" x1="0" y1="0" x2="23.5" y2="24" gradientUnits="userSpaceOnUse">
<stop offset="0.291505" stop-color="#3010A3"/>
<stop offset="1" stop-color="#8BA099"/>
</linearGradient>
</defs>
</svg>
